# xmcd
#
# Track frame offsets: 
#        150
#        15861
#        29806
#        43644
#        65294
#        80746
#        94347
#        109275
#        129270
#        140281
#        150270
#        167999
#        179583
#
# Disc length: 2497 seconds
#
# Revision: 0
# Processed by: cddbd v1.5.2PL0 Copyright (c) Steve Scherf et al.
# Submitted via: ExactAudioCopy v1.2
#
DISCID=a809bf0d
DTITLE=Little Roger and the Houserockers - Good Rockin' House Party
DYEAR=2017
DGENRE=Blues
TTITLE0=To The Bone
TTITLE1=It's Later Than You Think
TTITLE2=Just Can't Stay
TTITLE3=Little Girl
TTITLE4=Rocket Fizz (for Fred)
TTITLE5=Midnight Boogie
TTITLE6=Alternative Facts
TTITLE7=Night Walker
TTITLE8=Glad I Don't Have To Worry No More
TTITLE9=I Don't Go for That
TTITLE10=Whisky Tonight
TTITLE11=Crabs
TTITLE12=Get High Everybody
EXTD=
EXTT0=
EXTT1=
EXTT2=
EXTT3=
EXTT4=
EXTT5=
EXTT6=
EXTT7=
EXTT8=
EXTT9=
EXTT10=
EXTT11=
EXTT12=
PLAYORDER=
